PathFileType	4	(X/Y/Z)	..\data\2015032\dynamic\2015032_C4_03.trc
DataRate	CameraRate	NumFrames	NumMarkers	Units	OrigDataRate	OrigDataStartFrame	OrigNumFrames
100.000000	100.000000	4	48	mm	100.000000	50	203
Frame#	Time	L_IAS			L_IPS			R_IPS			R_IAS			L_FTC			L_FLE			L_FAX			L_TTC			L_FAL			L_FCC			L_FM1			L_FM2			L_FM5			R_FTC			R_FLE			R_FAX			R_TTC			R_FAL			R_FCC			R_FM1			R_FM2			R_FM5			CV7			TV10			SXS			SJN			L_SIA			L_SRS			L_SAA			L_SAE			L_HLE			L_HME			L_UOA			L_RSP			L_UHE			L_HM2			L_HM5			R_SIA			R_SRS			R_SAA			R_SAE			R_HLE			R_HME			R_UOA			R_RSP			R_UHE			R_HM2			R_HM5			
		X1	Y1	Z1	X2	Y2	Z2	X3	Y3	Z3	X4	Y4	Z4	X5	Y5	Z5	X6	Y6	Z6	X7	Y7	Z7	X8	Y8	Z8	X9	Y9	Z9	X10	Y10	Z10	X11	Y11	Z11	X12	Y12	Z12	X13	Y13	Z13	X14	Y14	Z14	X15	Y15	Z15	X16	Y16	Z16	X17	Y17	Z17	X18	Y18	Z18	X19	Y19	Z19	X20	Y20	Z20	X21	Y21	Z21	X22	Y22	Z22	X23	Y23	Z23	X24	Y24	Z24	X25	Y25	Z25	X26	Y26	Z26	X27	Y27	Z27	X28	Y28	Z28	X29	Y29	Z29	X30	Y30	Z30	X31	Y31	Z31	X32	Y32	Z32	X33	Y33	Z33	X34	Y34	Z34	X35	Y35	Z35	X36	Y36	Z36	X37	Y37	Z37	X38	Y38	Z38	X39	Y39	Z39	X40	Y40	Z40	X41	Y41	Z41	X42	Y42	Z42	X43	Y43	Z43	X44	Y44	Z44	X45	Y45	Z45	X46	Y46	Z46	X47	Y47	Z47	X48	Y48	Z48	

51	0.5	275.7546386718751	942.8084716796877	-342.9244384765626	125.132797241211	952.2400512695315	-273.5059204101563	128.8585357666016	956.4060668945315	-164.7229614257813	291.9581909179688	944.7924804687502	-108.9155197143555	217.7579193115235	867.955017089844	-394.5408325195314	358.3149719238282	474.2802734375001	-359.1800537109376	347.0903930664063	417.1866455078126	-366.4577331542969	409.744842529297	400.6399230957032	-321.3956604003907	272.5123901367188	92.21755218505861	-343.6183166503907	231.0993347167969	48.77621078491212	-297.2281494140626	423.9667358398439	41.39469528198243	-311.1354980468751	409.849578857422	50.29090499877931	-365.2536621093751	363.7742614746094	44.10974884033204	-396.0453186035157	194.5186920166016	855.4185791015627	-56.56563568115236	175.2551879882813	442.1969604492189	-101.7032165527344	164.363510131836	387.3933105468751	-109.1108856201172	220.9127655029297	381.6283569335938	-164.0178680419922	111.0286483764649	59.81912231445314	-203.209701538086	85.46418762207033	23.43156433105469	-265.3974914550782	277.1301574707032	26.29611396789551	-228.8672027587891	264.0615234375001	32.11875915527344	-172.1828918457032	202.5946197509766	16.68318367004395	-133.7193450927735	148.3582763671875	1440.463745117188	-211.0245819091797	91.32647705078126	1213.0166015625	-199.2219238281251	268.8715209960938	1183.760375976563	-229.622055053711	246.4625091552735	1348.649047851563	-222.7949523925782	54.73362731933595	1243.174926757813	-307.5545654296876	87.94030761718751	1367.378784179688	-305.0589904785157	146.6466522216797	1377.447509765625	-400.990692138672	191.3464813232422	1374.670532226563	-415.090545654297	133.3302612304688	1070.71728515625	-456.1482238769532	107.4689559936524	1061.197387695313	-386.703338623047	96.21537017822268	1040.64892578125	-426.7670288085939	210.3661041259766	826.9805908203127	-434.5521545410157	157.342041015625	839.270202636719	-487.1643676757814	223.2556304931641	743.0613403320314	-439.0018310546876	138.0114898681641	764.5289916992189	-490.4293823242189	92.37413787841798	1248.895385742188	-79.82925415039064	118.4616470336914	1365.841674804688	-102.5419464111328	197.4262084960938	1373.23828125	-23.43156623840332	243.6927490234376	1374.343139648438	-19.23501586914063	239.5336303710938	1062.89892578125	24.15235137939454	202.5656127929688	1052.732421875	-39.49506759643555	204.8020019531251	1030.750122070313	5.938346385955811	361.0308532714844	848.8818359375002	-32.08484649658204	322.6443786621094	839.245056152344	29.45506477355958	402.5906066894532	768.0723876953127	-30.12323760986329	326.6077270507813	765.1241455078126	36.43289184570313	
52	0.51	283.0189208984376	942.462829589844	-342.1484680175782	132.0598297119141	952.052917480469	-273.2201538085938	135.3012390136719	956.0857543945315	-164.3918762207032	298.2142333984376	943.917663574219	-107.7871322631836	224.9148406982422	867.9014892578127	-394.3137207031251	364.6111145019532	472.9859313964845	-358.4541625976563	355.4333190917969	415.1318359375001	-365.3139953613282	418.372283935547	401.3395385742189	-319.9508972167969	296.3181457519532	86.99145507812501	-340.6075439453126	256.6197509765626	42.13266754150391	-293.8642272949219	449.9289550781251	42.82061386108399	-307.1820983886719	435.4715270996095	50.78504943847658	-361.5364379882813	389.8333129882814	42.51384353637696	-392.263397216797	199.9366607666016	854.9221191406252	-56.0342254638672	177.8834228515625	442.0779724121095	-101.457633972168	166.5581970214844	387.3463134765626	-108.9413757324219	223.2408599853516	381.1308898925782	-163.6751403808594	111.1923828125	60.04835510253908	-203.2701416015626	85.50038146972658	23.74271011352539	-265.4617919921876	277.1449279785157	26.25568771362305	-228.7760314941407	264.0488891601563	32.08007431030274	-172.063232421875	202.5294036865235	16.5893611907959	-133.5976867675782	155.231918334961	1440.029418945313	-210.3898010253907	98.11748504638675	1212.656127929688	-198.3602905273438	275.6130676269532	1183.22119140625	-229.083724975586	253.2681732177735	1348.212646484375	-222.3977813720704	61.23997497558595	1242.65576171875	-306.2192077636719	94.46668243408205	1366.8701171875	-304.0302734375001	152.6611480712891	1376.838012695313	-400.204559326172	197.2669372558594	1374.00439453125	-414.6008605957032	137.2351531982422	1070.219360351563	-454.2860107421876	112.8160934448242	1060.839233398438	-384.3418579101564	100.6060562133789	1040.27880859375	-424.122283935547	214.0623626708985	826.2944335937502	-434.0996093750001	159.9425811767578	838.6999511718752	-485.497283935547	226.505844116211	742.2911987304689	-438.6336975097657	140.3266906738282	764.0123291015626	-488.308319091797	99.62357330322268	1248.74267578125	-78.71411895751955	125.6572799682617	1365.6279296875	-101.6851501464844	205.0048828125001	1373.081176757813	-22.87502479553223	251.2679901123047	1374.185424804688	-18.91714668273926	248.7426910400391	1062.7880859375	24.99058532714844	211.400619506836	1052.3154296875	-38.4285011291504	214.0933074951172	1030.355834960938	6.991571903228762	371.7043762207032	849.878356933594	-32.41909408569337	333.8545837402344	839.8257446289065	29.37237548828126	414.0466613769532	769.495544433594	-30.86377143859864	338.5479125976563	765.7360839843751	36.20786666870118	
53	0.52	290.3310546875001	942.036071777344	-341.4040527343751	139.0124969482422	951.8051757812502	-272.9426269531251	141.8103179931641	955.7030029296877	-164.0814971923828	304.5013122558594	943.0445556640627	-106.6817016601563	232.111557006836	867.7746582031252	-394.1199035644532	370.5323791503907	471.4758605957032	-357.8740539550782	363.4686279296876	412.9774780273439	-364.2431945800782	426.5751953125001	401.9315185546876	-318.5916137695313	319.8324584960938	82.51183319091798	-337.3596496582032	281.8551025390626	36.39540100097657	-290.1903991699219	475.2559509277345	44.84906768798829	-302.9689636230469	460.5358886718751	51.8832130432129	-357.5498046875001	415.4066772460939	41.62558746337891	-388.191864013672	205.4339752197266	854.4069824218752	-55.51406478881837	180.6927032470703	441.9511718750001	-101.2602920532227	168.9185333251953	387.285369873047	-108.8135299682617	225.730453491211	380.6143188476563	-163.3564453125	111.3952560424805	60.30758285522462	-203.3341064453126	85.54898834228517	24.09615516662598	-265.5205993652344	277.1972351074219	26.19492530822755	-228.6851196289063	264.0564575195313	32.02834701538087	-171.9395294189453	202.4771881103516	16.49881172180176	-133.4856109619141	162.1279602050782	1439.550170898438	-209.8237457275391	104.9322891235352	1212.249877929688	-197.5989532470704	282.3964538574219	1182.643432617188	-228.5877532958985	260.1054382324219	1347.73779296875	-222.0401763916016	67.83689880371095	1242.105590820313	-305.0297241210938	101.0657043457032	1366.321899414063	-303.1132812500001	158.8037109375	1376.201538085938	-399.5002441406251	203.3029785156251	1373.327758789063	-414.1669921875001	141.3255157470703	1069.690063476563	-452.3829040527345	118.3580703735352	1060.405639648438	-381.8687438964844	105.2080230712891	1039.878295898438	-421.4344482421876	217.9383392333985	825.5625610351565	-433.5497131347657	162.734603881836	838.0864868164065	-483.7157287597657	229.9264068603516	741.4929199218751	-438.1634521484376	142.82763671875	763.4613647460939	-486.0383605957032	106.8535842895508	1248.534790039063	-77.7082977294922	132.8359069824219	1365.364624023438	-100.9167175292969	212.5410308837891	1372.862670898438	-22.37817573547364	258.8037414550782	1373.958251953125	-18.63676834106446	257.8331298828126	1062.619384765625	25.72740936279298	220.1551666259766	1051.8603515625	-37.49328613281251	223.2644042968751	1029.9189453125	7.917710304260256	382.2272949218751	850.7755126953127	-32.85154724121094	344.8794860839844	840.3459472656252	29.19491195678712	425.3223876953126	770.8442993164065	-31.67169189453126	350.2735595703126	766.2947387695314	35.8735694885254	
54	0.53	297.6907653808594	941.526306152344	-340.6864929199219	145.9963684082032	951.4866943359377	-272.6731262207032	148.3860168457032	955.2575683593752	-163.7911834716797	310.8197021484376	942.1772460937502	-105.6056442260742	239.3508300781251	867.5686645507815	-393.9498291015626	376.1234741210938	469.7750244140626	-357.4363098144532	371.2320861816407	410.749969482422	-363.2523193359376	434.3839111328126	402.4262084960939	-317.3084106445313	342.9621582031251	78.78243255615236	-333.9299316406251	306.6886901855469	31.57637977600098	-286.2939453125001	499.8529357910157	47.46020889282227	-298.4905090332032	484.9693603515626	53.56469726562501	-353.2889404296876	440.4237365722657	41.41717910766602	-383.8507385253907	211.0167083740235	853.8704223632815	-55.0070037841797	183.68017578125	441.8183898925782	-101.1108856201172	171.4398803710938	387.2122802734376	-108.7273788452149	228.378158569336	380.0779724121094	-163.0607299804688	111.6363525390625	60.60057067871095	-203.4000091552735	85.60882568359376	24.49654197692872	-265.5772399902344	277.2829895019532	26.11507987976075	-228.5938873291016	264.0813293457032	31.96196365356446	-171.8087615966797	202.4348754882813	16.41187477111817	-133.3817291259766	169.0474853515625	1439.027465820313	-209.3292388916016	111.7741012573242	1211.797973632813	-196.936996459961	289.2255249023438	1182.03076171875	-228.1280670166016	266.9770507812501	1347.224365234375	-221.721176147461	74.52451324462892	1241.518188476563	-303.9821777343751	107.7397842407227	1365.732177734375	-302.3108520507813	165.0779571533203	1375.531127929688	-398.8814697265626	209.4639129638672	1372.630493164063	-413.7913818359376	145.617431640625	1069.120361328125	-450.456512451172	124.0879669189453	1059.896728515625	-379.3167114257813	110.0280838012696	1039.44189453125	-418.7314453125001	221.9928131103516	824.7774047851565	-432.8963623046876	165.7342071533203	837.4210205078127	-481.8317871093751	233.5223388671876	740.6569213867189	-437.582977294922	145.5328063964844	762.8661499023439	-483.6371154785157	114.0618591308594	1248.271362304688	-76.8145217895508	139.9979553222657	1365.052734375	-100.2384414672852	220.0320739746094	1372.580444335938	-21.93986701965332	266.2987060546876	1373.657836914063	-18.38913154602051	266.7947692871094	1062.387817382813	26.35985755920411	228.833236694336	1051.361206054688	-36.69469451904298	232.3113403320313	1029.432250976563	8.71084785461426	392.5951538085939	851.572692871094	-33.36631774902344	355.7081298828126	840.7979736328127	28.92880439758301	436.4215087890626	772.1105957031252	-32.52703857421876	361.7730102539063	766.7908325195314	35.43675994873048	
